<svg xmlns:xlink="http://www.w3.org/1999/xlink" xmlns="http://www.w3.org/2000/svg" viewBox="0 0 390 88" preserveAspectRatio="xMidYMid meet" class="css-grg60t" id="bgafabag" width="390"  height="88" ><defs id="SvgjsDefs1306"></defs><g id="SvgjsG1307" featurekey="rootContainer" transform="matrix(1,0,0,1,0,0)" fill="#252A34"><rect xmlns="http://www.w3.org/2000/svg" width="390" height="88" rx="10" ry="10" fill="#252A34"></rect></g><g id="SvgjsG1308" featurekey="q4o0QG-0" transform="matrix(3.1674210331719883,0,0,3.1674210331719883,18.036200077087962,4.2262431943897365)" fill="#EAEAEA"><path d="M5.62 16.48 l-0.08 -1.84 c0.34 0 2.6 0.04 3 0.1 l-0.14 4.86 l-1.22 0.54 l-2.24 0 l-2.6 0.08 l-0.72 -0.6 l-0.82 -1.42 l0 -2.66 l-0.18 -3.34 l0.08 -3.06 l0.28 -3.26 l2.06 -0.64 l3.2 -0.12 l0.4 0.02 l0.4 0.08 l1.32 0.52 l0 1.02 l0.04 3.06 l-0.1 0.74 l-1.36 0.2 l-1.46 -0.2 l-0.18 -2.38 l-0.4 -0.3 l-0.92 0.14 l-0.3 1.16 c0 0.22 0.06 1.2 0.06 2.1 c0.04 0.54 0.06 1.12 0.06 1.78 c0 0.9 0.04 1.72 0.1 2.48 c0.04 1.3 0.18 2.72 0.16 3.22 l1.48 0.04 z M17.259999999999998 7.199999999999999 l-0.08 10.84 l-0.22 1.44 l-0.64 0.52 l-2.04 0.22 l-3.74 -0.36 l-0.54 -0.54 l-0.38 -0.82 l0.08 -3.44 c0 -1.5 0.02 -2.86 0.06 -4.06 c-0.02 -2.04 0 -4.08 0.06 -4.18 c0 -0.08 0.12 -0.42 0.34 -0.74 l0.26 -0.64 l3.16 -0.3 l2.26 0.28 l1.12 0.44 z M13.64 17.3 l0.74 -0.3 l0.24 -7.48 l-0.48 -0.28 l-1.92 -0.04 l-0.18 0.68 l0.04 2.82 l0 4.48 l0.32 0.06 z M22.54 8.22 l-2.1 -0.22 l-0.22 9.2 l1.92 0.04 l0.28 -0.3 l0.48 -4.78 l0 -2.3 z M18.8 5.359999999999999 l0.62 0 l1.6 -0.04 c0.88 -0.02 1.72 -0.04 2.1 0.02 l1.18 0.34 c0.24 0.08 0.48 0.18 0.72 0.28 l1.1 1.76 c0.08 1.26 0.14 2.44 0.16 3.56 c0 1.92 0 4.02 -0.16 4.9 c-0.1 0.62 -0.24 1.14 -0.26 1.52 c-0.06 0.22 -0.08 0.44 -0.08 0.62 l-1.06 1.58 l-2.4 0.14 l-3.62 0 z M27.619999999999997 8.88 l3.2 0.08 l-0.16 2.5 l0.24 5.08 l-0.14 3.38 l-0.28 0.04 l-2.8 -0.06 l-0.12 -0.92 l-0.04 -5.36 z M27.74 4.98 l3.02 0.04 l0.14 0.78 l0 1.34 l-0.08 0.72 l-3.2 0.02 l-0.1 -1.3 l-0.04 -1.4 z M32.419999999999995 5.26 l2.56 0.08 l2.16 10.14 l0.18 -1.06 l-0.58 -9.1 l2.22 -0.04 l0.88 0.2 l-0.4 14.4 l-1.78 0.24 l-1.78 -0.1 l-1.18 -8.78 l-0.42 -1.3 l0.06 10.04 l-2.06 0.18 l-0.1 -8.58 z M41.13999999999999 5.859999999999999 l0.6 -0.54 l0 0 l1.78 -0.28 l3.76 0.28 l0.52 0.54 l0.48 0.8 l0.14 3.44 l-2.8 0.28 l-0.12 -0.52 l-0.02 -2.42 l-0.94 -0.36 l-0.78 0.1 l0.1 9.12 l0.56 0.28 l2.7 0.14 l0 -1.46 l-2.48 0.02 l-0.04 -0.24 l0 -2.32 l3.26 -0.24 l0.56 0.1 l0.02 3.62 l-0.1 3.58 l-3.2 0.36 l-2.26 -0.22 l-1.28 -0.84 l-0.28 -0.9 l-0.3 -10.9 z M59.49999999999999 5.119999999999999 l1.64 0.48 l0.22 0.76 l0.14 2.64 l-0.12 0.94 l-1.36 -0.04 l-1.64 0.06 l0 -0.82 l-0.18 -1.06 l-2.32 -0.02 l-0.22 0.58 l0.2 2.24 l1.46 0.04 c0.78 0.02 1.54 0.04 1.7 0.1 c0.1 0.06 0.66 0.08 1.22 0.14 l1.04 0.06 l0.22 3.36 l0 1.74 l-0.18 3.02 l-1.58 0.76 l-3.86 0.04 l-1.38 -0.66 l-0.34 -1.78 l0.08 -2.68 l0.06 -0.82 l0.76 0.04 l1.68 0.22 l0.06 2.8 l1.82 0.14 l0.06 -4.08 l-1.22 -0.04 l-1.46 -0.04 l-1.52 -0.4 l-0.18 -4.26 l0.28 -2.88 l1.94 -0.6 z M64.61999999999999 13.379999999999999 l2 -0.1 l-0.06 -2.78 l-0.5 -1.94 l-1.24 -0.1 z M65.16 5.199999999999999 l1.28 0 l2.62 0.18 l0.54 7.26 l0.2 7.24 l-0.6 0.04 l-2.26 0.1 l-0.24 0 l-0.18 -4.5 l-1.88 -0.12 l-0.5 4.6 l-1.96 0.06 l0.64 -7.48 l0.58 -4.28 l0.42 -3 z M70.6 20 l0.24 -14.5 l2.38 -0.18 l1.08 0.12 l1.02 6.94 l0.6 -7.16 l4.1 0.5 c0.02 0.76 0.04 1.54 0.04 2.36 c0.08 1.38 0.18 3.18 0.18 4.84 c0.06 2.68 -0.02 4.6 0.16 7.12 l-1.76 -0.04 l-0.14 -8.98 l-0.38 -0.08 l-1 7.96 l-0.34 0.98 l-2.12 0.12 l-1.02 -8.4 l-0.6 0.14 l0.22 8.38 z M81.66000000000001 17.44 l0.1 -11.92 l0.78 -0.34 l2.4 0.14 l0.54 0.2 l-0.2 4.7 l-0.24 7.34 l0.8 1.08 l1.52 -0.32 l-0.12 -8.5 l0.12 -4.62 l1.9 0 l0.06 12.98 l-0.54 1.32 l-2.5 0.72 l-3.6 -0.5 z M92.9 7.699999999999999 l0.06 1.58 l0 2.06 l0.72 0 l0.7 -0.06 l0.46 -0.44 l0 -0.2 l0.08 -1.36 l-0.16 -1.22 l0 -0.04 l-0.22 -0.8 l-0.54 -0.24 l-1.04 0 z M92.78000000000002 5.24 l2.62 0.04 l1.24 0.14 l1.02 0.58 l0.8 1.32 l-0.26 3.86 l-0.32 0.6 l-1.18 0.38 l1.34 1 l0.36 0.98 l0 1.6 l-0.18 4.24 l-0.52 0.12 l-2.06 -0.1 l-0.1 -3.9 l-0.14 -2.06 l-0.48 -0.52 l-0.92 -0.3 l0 1.48 l0 3.72 l0.06 1.56 l-1.94 -0.02 l-0.92 0.06 l-0.32 -0.06 l0 -2.88 l0 -2.1 l0.12 -2.72 l-0.08 -4.68 l-0.04 -2.32 z M101.52000000000001 13.379999999999999 l2 -0.1 l-0.06 -2.78 l-0.5 -1.94 l-1.24 -0.1 z M102.06000000000002 5.199999999999999 l1.28 0 l2.62 0.18 l0.54 7.26 l0.2 7.24 l-0.6 0.04 l-2.26 0.1 l-0.24 0 l-0.18 -4.5 l-1.88 -0.12 l-0.5 4.6 l-1.96 0.06 l0.64 -7.48 l0.58 -4.28 l0.42 -3 z M107.84000000000002 8.88 l3.2 0.08 l-0.16 2.5 l0.24 5.08 l-0.14 3.38 l-0.28 0.04 l-2.8 -0.06 l-0.12 -0.92 l-0.04 -5.36 z M107.96000000000002 4.98 l3.02 0.04 l0.14 0.78 l0 1.34 l-0.08 0.72 l-3.2 0.02 l-0.1 -1.3 l-0.04 -1.4 z" fill="#EAEAEA"></path></g></svg>